<?xml version="1.0" encoding="UTF-8"?>
<svg id="Layer_1" enable-background="new -131 15.5 457 457" version="1.1" viewBox="-131 15.5 457 457" xml:space="preserve" xmlns="http://www.w3.org/2000/svg">
<style type="text/css">
 .st0{fill:#FFFFFF;}
 .st1{fill:#1ED760;}
</style>
<g id="XMLID_1_">
 <path class="st0" d="m194.8 323.1c6.5 4 8.6 12.5 4.6 19s-12.5 8.6-19 4.6c-52.1-31.8-117.7-39-195-21.4-7.4 1.7-14.9-3-16.6-10.4s2.9-14.9 10.4-16.6c84.5-19.2 157-10.9 215.6 24.8z"/>
 <path class="st0" d="m220.8 258c8.1 5 10.7 15.7 5.7 23.8s-15.7 10.7-23.8 5.7c-59.7-36.7-150.6-47.4-221.2-25.9-9.2 2.8-18.8-2.4-21.6-11.5-2.8-9.2 2.4-18.8 11.5-21.6 80.6-24.5 180.9-12.7 249.4 29.5z"/>
 <path class="st0" d="m250 183.1c9.9 5.9 13.1 18.6 7.3 28.5s-18.6 13.1-28.4 7.3c-71.6-42.5-189.6-46.4-257.9-25.7-11 3.3-22.6-2.9-25.9-13.8-3.3-11 2.9-22.6 13.8-25.9 78.4-23.9 208.8-19.3 291.1 29.6z"/>
 <path class="st1" d="m97.5 22c122.6 0 222 99.4 222 222s-99.4 222-222 222-222-99.4-222-222 99.4-222 222-222zm159.8 189.5c5.9-9.9 2.6-22.6-7.3-28.5-82.4-48.9-212.7-53.5-291.1-29.7-11 3.3-17.2 14.9-13.8 25.9 3.3 11 14.9 17.2 25.9 13.8 68.3-20.7 186.4-16.8 257.9 25.7 9.8 5.9 22.6 2.7 28.4-7.2zm-30.8 70.2c5-8.1 2.4-18.8-5.7-23.8-68.5-42.1-168.8-53.9-249.4-29.5-9.1 2.8-14.3 12.4-11.5 21.6 2.8 9.1 12.4 14.3 21.6 11.5 70.6-21.4 161.5-10.8 221.2 25.9 8.1 5.1 18.8 2.5 23.8-5.7zm-27.2 60.5c4-6.5 1.9-15-4.6-19-58.5-35.8-131.1-44.1-215.6-24.8-7.5 1.7-12.1 9.1-10.4 16.6s9.1 12.1 16.6 10.4c77.3-17.7 142.9-10.4 195 21.4 6.5 4 15.1 1.9 19-4.6z"/>
</g>
</svg>
